PathFileType	4	(X/Y/Z)	C:\Users\italobelli\Desktop\GitHub\PTbot_officialCBL\Personal_Results\ABD01_noisy1.trc
DataRate	CameraRate	NumFrames	NumMarkers	Units	OrigDataRate	OrigDataStartFrame	OrigNumFrames
104.666667	104.666667	21	9	m	104.666667	413	1100
Frame#	Time		gu		centelbow		EpL		centpxt8		centijc7		ij		ts		aa		ai
			X1	Y1	Z1	X2	Y2	Z2	X3	Y3	Z3	X4	Y4	Z4	X5	Y5	Z5	X6	Y6	Z6	X7	Y7	Z7	X8	Y8	Z8	X9	Y9	Z9

413	3.9363	-0.08536	0.0091736	0.15813	-0.13048	-0.14897	0.33165	-0.13774	-0.12209	0.34803	-0.046816	-0.15316	-0.008669	-0.046816	0.031938	-0.008669	0	0	0	-0.13244	0.014916	0.038556	-0.11664	0.039607	0.15428	-0.15277	-0.092413	0.069856
414	3.9459	-0.085431	0.0096729	0.15798	-0.13053	-0.1465	0.33306	-0.13785	-0.11946	0.34911	-0.046816	-0.15316	-0.008669	-0.046816	0.031938	-0.008669	0	0	0	-0.13238	0.014654	0.038408	-0.11677	0.039996	0.15401	-0.1526	-0.092535	0.070243
415	3.9554	-0.085499	0.010167	0.15783	-0.13057	-0.14404	0.33442	-0.13794	-0.11684	0.35015	-0.046816	-0.15316	-0.008669	-0.046816	0.031938	-0.008669	0	0	0	-0.13232	0.014396	0.038268	-0.11689	0.040379	0.15375	-0.15242	-0.09265	0.070628
416	3.965	-0.085562	0.010656	0.15768	-0.1306	-0.14159	0.33572	-0.13802	-0.11424	0.35113	-0.046816	-0.15316	-0.008669	-0.046816	0.031938	-0.008669	0	0	0	-0.13226	0.014141	0.038137	-0.11701	0.040758	0.15348	-0.15224	-0.092757	0.071009
417	3.9745	-0.085622	0.01114	0.15753	-0.13062	-0.13917	0.33697	-0.13808	-0.11166	0.35206	-0.046816	-0.15316	-0.008669	-0.046816	0.031938	-0.008669	0	0	0	-0.1322	0.013891	0.038016	-0.11712	0.041131	0.15322	-0.15206	-0.092855	0.071387
418	3.9841	-0.085678	0.011617	0.15739	-0.13063	-0.13676	0.33816	-0.13813	-0.1091	0.35294	-0.046816	-0.15316	-0.008669	-0.046816	0.031938	-0.008669	0	0	0	-0.13214	0.013645	0.037904	-0.11722	0.041498	0.15296	-0.15189	-0.092944	0.07176
419	3.9936	-0.085729	0.012087	0.15724	-0.13063	-0.13438	0.33928	-0.13817	-0.10656	0.35375	-0.046816	-0.15316	-0.008669	-0.046816	0.031938	-0.008669	0	0	0	-0.13208	0.013404	0.037802	-0.11732	0.041858	0.1527	-0.15172	-0.093025	0.072129
420	4.0032	-0.085776	0.012551	0.15709	-0.13063	-0.13201	0.34035	-0.13818	-0.10405	0.35451	-0.046816	-0.15316	-0.008669	-0.046816	0.031938	-0.008669	0	0	0	-0.13202	0.013167	0.03771	-0.11741	0.042213	0.15244	-0.15154	-0.093096	0.072493
421	4.0127	-0.08582	0.013017	0.15694	-0.13061	-0.12962	0.3414	-0.1382	-0.10152	0.35525	-0.046816	-0.15316	-0.008669	-0.046816	0.031938	-0.008669	0	0	0	-0.13196	0.012931	0.037622	-0.1175	0.042568	0.15219	-0.15137	-0.093163	0.072865
422	4.0223	-0.08586	0.013487	0.15679	-0.13059	-0.12719	0.34244	-0.13821	-0.098948	0.35598	-0.046816	-0.15316	-0.008669	-0.046816	0.031938	-0.008669	0	0	0	-0.1319	0.012693	0.037535	-0.11758	0.042926	0.15193	-0.15119	-0.093227	0.073247
423	4.0318	-0.085897	0.01396	0.15663	-0.13056	-0.12472	0.34348	-0.13821	-0.096342	0.3567	-0.046816	-0.15316	-0.008669	-0.046816	0.031938	-0.008669	0	0	0	-0.13183	0.012454	0.03745	-0.11766	0.043287	0.15167	-0.151	-0.093289	0.073639
424	4.0414	-0.08593	0.014437	0.15647	-0.13053	-0.1222	0.34451	-0.13822	-0.093702	0.35742	-0.046816	-0.15316	-0.008669	-0.046816	0.031938	-0.008669	0	0	0	-0.13176	0.012213	0.037366	-0.11775	0.043651	0.1514	-0.15082	-0.093348	0.07404
425	4.051	-0.085961	0.014916	0.15631	-0.13049	-0.11966	0.34554	-0.13822	-0.09103	0.35812	-0.046816	-0.15316	-0.008669	-0.046816	0.031938	-0.008669	0	0	0	-0.13169	0.011972	0.037284	-0.11783	0.044017	0.15114	-0.15063	-0.093405	0.074451
426	4.0605	-0.085988	0.015399	0.15614	-0.13044	-0.11707	0.34655	-0.13822	-0.088329	0.35882	-0.046816	-0.15316	-0.008669	-0.046816	0.031938	-0.008669	0	0	0	-0.13162	0.011729	0.037203	-0.1179	0.044386	0.15088	-0.15043	-0.093459	0.07487
427	4.0701	-0.086012	0.015884	0.15597	-0.13039	-0.11446	0.34756	-0.13822	-0.085598	0.35951	-0.046816	-0.15316	-0.008669	-0.046816	0.031938	-0.008669	0	0	0	-0.13155	0.011486	0.037124	-0.11798	0.044757	0.15061	-0.15024	-0.09351	0.075298
428	4.0796	-0.086033	0.016372	0.1558	-0.13033	-0.11181	0.34856	-0.13821	-0.082841	0.36019	-0.046816	-0.15316	-0.008669	-0.046816	0.031938	-0.008669	0	0	0	-0.13148	0.011242	0.037047	-0.11806	0.045129	0.15034	-0.15004	-0.093559	0.075733
429	4.0892	-0.086052	0.016861	0.15562	-0.13027	-0.10913	0.34955	-0.13821	-0.080058	0.36086	-0.046816	-0.15316	-0.008669	-0.046816	0.031938	-0.008669	0	0	0	-0.1314	0.010997	0.036971	-0.11813	0.045503	0.15008	-0.14984	-0.093605	0.076176
430	4.0987	-0.086067	0.017353	0.15544	-0.1302	-0.10643	0.35053	-0.1382	-0.077252	0.36152	-0.046816	-0.15316	-0.008669	-0.046816	0.031938	-0.008669	0	0	0	-0.13133	0.010752	0.036897	-0.1182	0.045879	0.14981	-0.14963	-0.093649	0.076626
431	4.1083	-0.086079	0.017846	0.15525	-0.13013	-0.10369	0.35151	-0.13818	-0.074424	0.36216	-0.046816	-0.15316	-0.008669	-0.046816	0.031938	-0.008669	0	0	0	-0.13125	0.010507	0.036824	-0.11827	0.046256	0.14954	-0.14943	-0.09369	0.077082
432	4.1178	-0.086089	0.018341	0.15507	-0.13005	-0.10094	0.35247	-0.13817	-0.071575	0.3628	-0.046816	-0.15316	-0.008669	-0.046816	0.031938	-0.008669	0	0	0	-0.13117	0.010261	0.036753	-0.11834	0.046634	0.14927	-0.14922	-0.093729	0.077545
433	4.1274	-0.086096	0.018837	0.15488	-0.12996	-0.098157	0.35341	-0.13815	-0.068708	0.36342	-0.046816	-0.15316	-0.008669	-0.046816	0.031938	-0.008669	0	0	0	-0.13109	0.010016	0.036684	-0.11841	0.047013	0.149	-0.149	-0.093765	0.078013
